<svg width="40" height="40" viewBox="0 0 40 40" fill="none" xmlns="http://www.w3.org/2000/svg">
<path d="M15 29C14.45 29 13.9793 28.8043 13.588 28.413C13.196 28.021 13 27.55 13 27V14C12.7167 14 12.479 13.9043 12.287 13.713C12.0957 13.521 12 13.2833 12 13C12 12.7167 12.0957 12.479 12.287 12.287C12.479 12.0957 12.7167 12 13 12H17C17 11.7167 17.096 11.479 17.288 11.287C17.4793 11.0957 17.7167 11 18 11H22C22.2833 11 22.521 11.0957 22.713 11.287C22.9043 11.479 23 11.7167 23 12H27C27.2833 12 27.5207 12.0957 27.712 12.287C27.904 12.479 28 12.7167 28 13C28 13.2833 27.904 13.521 27.712 13.713C27.5207 13.9043 27.2833 14 27 14V27C27 27.55 26.8043 28.021 26.413 28.413C26.021 28.8043 25.55 29 25 29H15ZM17 24C17 24.2833 17.096 24.5207 17.288 24.712C17.4793 24.904 17.7167 25 18 25C18.2833 25 18.521 24.904 18.713 24.712C18.9043 24.5207 19 24.2833 19 24V17C19 16.7167 18.9043 16.479 18.713 16.287C18.521 16.0957 18.2833 16 18 16C17.7167 16 17.4793 16.0957 17.288 16.287C17.096 16.479 17 16.7167 17 17V24ZM21 24C21 24.2833 21.096 24.5207 21.288 24.712C21.4793 24.904 21.7167 25 22 25C22.2833 25 22.521 24.904 22.713 24.712C22.9043 24.5207 23 24.2833 23 24V17C23 16.7167 22.9043 16.479 22.713 16.287C22.521 16.0957 22.2833 16 22 16C21.7167 16 21.4793 16.0957 21.288 16.287C21.096 16.479 21 16.7167 21 17V24Z" fill="#757575"/>
</svg>
